<?xml version="1.0" standalone="no"?>
<!DOCTYPE svg PUBLIC "-//W3C//DTD SVG 20010904//EN"
 "http://www.w3.org/TR/2001/REC-SVG-20010904/DTD/svg10.dtd">
<svg version="1.0" xmlns="http://www.w3.org/2000/svg"
 width="300.000000pt" height="300.000000pt" viewBox="0 0 300.000000 300.000000"
 preserveAspectRatio="xMidYMid meet">
<metadata>
Created by potrace 1.11, written by Peter Selinger 2001-2013
</metadata>
<g transform="translate(0.000000,300.000000) scale(0.100000,-0.100000)"
fill="#000000" stroke="none">
<path d="M1383 2931 l-33 -6 153 -239 152 -239 85 -23 c92 -24 163 -54 249
-105 l54 -31 -6 53 c-3 30 -11 155 -18 278 l-13 224 -33 14 c-135 56 -467 98
-590 74z"/>
<path d="M1155 2896 c-114 -29 -214 -65 -307 -112 -91 -45 -199 -116 -195
-128 2 -4 112 -65 246 -133 l243 -126 111 28 c84 21 139 28 219 29 59 0 108 3
108 6 0 16 -308 455 -320 457 -8 1 -55 -8 -105 -21z"/>
<path d="M2084 2793 c3 -10 10 -139 16 -288 l11 -269 68 -71 c57 -58 118 -141
177 -241 10 -16 21 0 79 121 147 305 166 349 161 371 -9 34 -194 205 -296 273
-84 56 -200 121 -215 121 -4 0 -4 -8 -1 -17z"/>
<path d="M503 2538 c-47 -46 -107 -111 -135 -145 -55 -70 -168 -250 -168 -270
0 -10 57 -11 283 -6 l282 6 70 66 c70 67 130 112 207 156 l40 23 -154 80 c-84
44 -195 101 -246 126 l-93 47 -86 -83z"/>
<path d="M1325 2376 c-347 -68 -615 -323 -696 -662 -18 -76 -20 -110 -16 -234
4 -128 8 -155 34 -232 49 -141 105 -230 218 -343 60 -61 126 -115 165 -138
368 -212 812 -145 1096 166 145 159 224 365 224 586 0 277 -123 519 -355 701
-58 46 -209 118 -295 141 -99 26 -282 33 -375 15z m341 -86 c137 -35 232 -87
375 -208 36 -30 115 -145 154 -221 54 -108 77 -206 78 -336 2 -153 -30 -272
-108 -413 l-29 -54 -61 6 c-173 16 -217 18 -228 7 -6 -6 -24 -11 -39 -11 -32
0 -37 22 -13 54 8 11 15 32 15 48 0 35 25 38 34 3 4 -14 12 -25 19 -25 22 0
36 60 46 194 8 105 7 140 -5 185 -7 30 -14 64 -14 74 0 10 -16 46 -36 78 l-37
59 7 84 c4 50 3 92 -3 103 -5 10 -15 53 -22 96 -8 55 -16 77 -26 77 -8 0 -17
-8 -20 -17 -3 -10 -25 -35 -50 -55 l-44 -38 -204 0 -204 0 -53 60 c-59 68 -78
75 -78 29 0 -17 -9 -77 -21 -132 -13 -66 -18 -120 -15 -152 19 -164 18 -169
-4 -225 -30 -77 -37 -186 -17 -252 9 -29 19 -81 22 -115 8 -72 23 -81 48 -28
9 19 21 35 26 35 17 0 63 -92 51 -104 -5 -5 -10 -18 -10 -28 0 -16 -9 -18 -69
-18 -47 0 -72 -4 -80 -14 -9 -11 -33 -14 -97 -11 -78 2 -88 5 -115 31 -67 64
-129 211 -150 356 -38 261 80 558 289 724 74 59 217 129 312 154 105 27 270
27 376 0z m-303 -490 c82 -65 35 -200 -70 -200 -66 0 -120 77 -102 144 19 68
116 100 172 56z m319 0 c89 -69 35 -210 -75 -196 -107 13 -138 151 -45 203 35
19 92 16 120 -7z m-179 -211 c16 -21 11 -53 -12 -97 -15 -28 -34 -19 -54 24
-21 43 -21 53 0 76 21 24 48 23 66 -3z m-325 -601 c26 -6 60 -22 76 -36 37
-30 87 -25 121 13 21 21 33 25 83 25 49 0 62 -4 82 -25 35 -38 101 -35 147 6
l36 31 96 -9 c53 -4 124 -8 159 -8 78 0 82 -16 15 -75 -185 -162 -468 -228
-714 -165 -133 34 -329 150 -329 195 0 14 9 21 38 26 20 4 42 10 47 14 27 20
82 24 143 8z"/>
<path d="M2600 2273 c-44 -90 -109 -226 -174 -366 -20 -44 -33 -83 -30 -89 19
-31 45 -168 51 -265 3 -62 7 -113 9 -113 4 0 413 275 437 294 18 14 17 17 -3
103 -25 105 -59 200 -112 306 -35 73 -123 217 -131 217 -2 0 -23 -39 -47 -87z"/>
<path d="M303 2053 l-142 -4 -30 -92 c-16 -50 -37 -126 -46 -167 -16 -73 -33
-380 -22 -380 5 0 270 160 473 286 14 8 29 38 44 86 22 73 63 161 106 230 13
21 24 40 24 43 0 5 -97 4 -407 -2z"/>
<path d="M2815 1612 c-55 -37 -161 -109 -236 -159 l-135 -92 -17 -73 c-20 -84
-75 -224 -106 -266 -11 -16 -18 -31 -16 -34 3 -3 151 9 515 44 35 3 35 4 58
83 35 121 52 256 51 395 -1 189 5 184 -114 102z"/>
<path d="M305 1489 c-198 -119 -230 -141 -233 -164 -8 -63 58 -303 115 -423
47 -98 95 -174 103 -165 9 9 205 333 257 424 l32 55 -15 55 c-9 30 -19 119
-22 205 l-7 150 -230 -137z"/>
<path d="M477 923 c-164 -273 -157 -254 -121 -300 54 -71 188 -204 258 -257
70 -51 201 -136 211 -136 3 0 5 132 5 293 l0 293 -31 30 c-46 44 -123 151
-158 222 -17 34 -33 62 -35 62 -2 0 -60 -93 -129 -207z"/>
<path d="M2655 954 c-11 -1 -105 -11 -209 -20 l-188 -17 -82 -82 c-71 -72
-222 -185 -247 -185 -5 0 -9 -4 -9 -10 0 -5 4 -10 10 -10 5 0 118 -49 250
-110 186 -85 246 -108 259 -100 31 16 168 168 226 250 55 78 137 224 150 268
6 21 5 22 -67 21 -40 -1 -82 -3 -93 -5z"/>
<path d="M896 727 c-3 -12 -4 -98 -2 -192 2 -93 5 -209 5 -256 l1 -87 48 -20
c133 -57 329 -99 482 -103 138 -5 240 0 240 11 0 6 -16 33 -35 60 -40 57 -71
101 -175 250 -119 171 -108 161 -207 187 -99 26 -234 87 -304 138 -46 33 -47
33 -53 12z"/>
<path d="M1756 584 c-84 -26 -282 -50 -317 -39 -16 6 -20 4 -13 -6 15 -26 167
-244 242 -347 l75 -104 46 7 c73 11 243 70 341 119 82 41 230 133 230 143 0 6
-510 253 -518 252 -4 -1 -42 -12 -86 -25z"/>
</g>
</svg>
